<svg width="300" height="127" viewBox="0 0 300 127" fill="none" xmlns="http://www.w3.org/2000/svg">
<g clip-path="url(#clip0)">
<path d="M20.4541 118L19.3994 113.986H12.4414L11.3574 118H5L11.9873 96.4961H19.707L26.7822 118H20.4541ZM18.1982 109.24L17.2754 105.725C17.0605 104.943 16.7969 103.933 16.4844 102.692C16.1816 101.452 15.9814 100.563 15.8838 100.026C15.7959 100.524 15.6201 101.345 15.3564 102.487C15.1025 103.63 14.5312 105.881 13.6426 109.24H18.1982ZM39.248 118V108.947C39.248 107.844 39.0869 107.014 38.7646 106.457C38.4521 105.891 37.9443 105.607 37.2412 105.607C36.2744 105.607 35.5762 105.993 35.1465 106.765C34.7168 107.536 34.502 108.859 34.502 110.734V118H28.7744V101.403H33.0957L33.8135 103.454H34.1504C34.6387 102.673 35.3125 102.087 36.1719 101.696C37.041 101.306 38.0371 101.11 39.1602 101.11C40.9961 101.11 42.4219 101.643 43.4375 102.707C44.4629 103.771 44.9756 105.271 44.9756 107.204V118H39.248ZM59.6973 118L58.5986 115.803H58.4814C57.71 116.76 56.9238 117.414 56.123 117.766C55.3223 118.117 54.2871 118.293 53.0176 118.293C51.4551 118.293 50.2246 117.824 49.3262 116.887C48.4277 115.949 47.9785 114.631 47.9785 112.932C47.9785 111.164 48.5938 109.851 49.8242 108.991C51.0547 108.122 52.8369 107.634 55.1709 107.526L57.9395 107.438V107.204C57.9395 105.837 57.2656 105.153 55.918 105.153C54.707 105.153 53.1689 105.563 51.3037 106.384L49.6484 102.604C51.582 101.608 54.0234 101.11 56.9727 101.11C59.1016 101.11 60.7471 101.638 61.9092 102.692C63.0811 103.747 63.667 105.222 63.667 107.116V118H59.6973ZM55.4492 114.25C56.1426 114.25 56.7334 114.03 57.2217 113.591C57.7197 113.151 57.9688 112.58 57.9688 111.877V110.588L56.6504 110.646C54.7656 110.715 53.8232 111.408 53.8232 112.727C53.8232 113.742 54.3652 114.25 55.4492 114.25ZM80.3809 112.902C80.3809 114.68 79.7754 116.022 78.5645 116.931C77.3535 117.839 75.6152 118.293 73.3496 118.293C72.1191 118.293 71.0498 118.225 70.1416 118.088C69.2334 117.961 68.3057 117.722 67.3584 117.37V112.785C68.2471 113.176 69.2188 113.498 70.2734 113.752C71.3379 114.006 72.2852 114.133 73.1152 114.133C74.3555 114.133 74.9756 113.85 74.9756 113.283C74.9756 112.99 74.7998 112.731 74.4482 112.507C74.1064 112.272 73.1006 111.823 71.4307 111.159C69.9072 110.534 68.8428 109.826 68.2373 109.035C67.6318 108.234 67.3291 107.224 67.3291 106.003C67.3291 104.46 67.9248 103.259 69.1162 102.399C70.3076 101.54 71.9922 101.11 74.1699 101.11C75.2637 101.11 76.2891 101.232 77.2461 101.477C78.2129 101.711 79.2139 102.058 80.249 102.517L78.6963 106.208C77.9346 105.866 77.1289 105.578 76.2793 105.344C75.4297 105.1 74.7363 104.978 74.1992 104.978C73.2617 104.978 72.793 105.207 72.793 105.666C72.793 105.949 72.9541 106.193 73.2764 106.398C73.6084 106.594 74.5557 106.999 76.1182 107.614C77.2803 108.093 78.1445 108.562 78.7109 109.021C79.2871 109.479 79.707 110.021 79.9707 110.646C80.2441 111.262 80.3809 112.014 80.3809 112.902ZM91.6895 113.767C92.4609 113.767 93.3838 113.576 94.458 113.195V117.37C93.6865 117.702 92.9492 117.937 92.2461 118.073C91.5527 118.22 90.7373 118.293 89.7998 118.293C87.876 118.293 86.4893 117.824 85.6396 116.887C84.79 115.939 84.3652 114.489 84.3652 112.536V105.695H82.3584V103.366L84.9072 101.564L86.3867 98.0781H90.1367V101.403H94.209V105.695H90.1367V112.155C90.1367 113.229 90.6543 113.767 91.6895 113.767ZM108.184 118L107.085 115.803H106.968C106.196 116.76 105.41 117.414 104.609 117.766C103.809 118.117 102.773 118.293 101.504 118.293C99.9414 118.293 98.7109 117.824 97.8125 116.887C96.9141 115.949 96.4648 114.631 96.4648 112.932C96.4648 111.164 97.0801 109.851 98.3105 108.991C99.541 108.122 101.323 107.634 103.657 107.526L106.426 107.438V107.204C106.426 105.837 105.752 105.153 104.404 105.153C103.193 105.153 101.655 105.563 99.79 106.384L98.1348 102.604C100.068 101.608 102.51 101.11 105.459 101.11C107.588 101.11 109.233 101.638 110.396 102.692C111.567 103.747 112.153 105.222 112.153 107.116V118H108.184ZM103.936 114.25C104.629 114.25 105.22 114.03 105.708 113.591C106.206 113.151 106.455 112.58 106.455 111.877V110.588L105.137 110.646C103.252 110.715 102.31 111.408 102.31 112.727C102.31 113.742 102.852 114.25 103.936 114.25ZM128.867 112.902C128.867 114.68 128.262 116.022 127.051 116.931C125.84 117.839 124.102 118.293 121.836 118.293C120.605 118.293 119.536 118.225 118.628 118.088C117.72 117.961 116.792 117.722 115.845 117.37V112.785C116.733 113.176 117.705 113.498 118.76 113.752C119.824 114.006 120.771 114.133 121.602 114.133C122.842 114.133 123.462 113.85 123.462 113.283C123.462 112.99 123.286 112.731 122.935 112.507C122.593 112.272 121.587 111.823 119.917 111.159C118.394 110.534 117.329 109.826 116.724 109.035C116.118 108.234 115.815 107.224 115.815 106.003C115.815 104.46 116.411 103.259 117.603 102.399C118.794 101.54 120.479 101.11 122.656 101.11C123.75 101.11 124.775 101.232 125.732 101.477C126.699 101.711 127.7 102.058 128.735 102.517L127.183 106.208C126.421 105.866 125.615 105.578 124.766 105.344C123.916 105.1 123.223 104.978 122.686 104.978C121.748 104.978 121.279 105.207 121.279 105.666C121.279 105.949 121.44 106.193 121.763 106.398C122.095 106.594 123.042 106.999 124.604 107.614C125.767 108.093 126.631 108.562 127.197 109.021C127.773 109.479 128.193 110.021 128.457 110.646C128.73 111.262 128.867 112.014 128.867 112.902ZM137.803 118H132.075V101.403H137.803V118ZM131.929 97.2725C131.929 96.4131 132.168 95.7734 132.646 95.3535C133.125 94.9336 133.896 94.7236 134.961 94.7236C136.025 94.7236 136.802 94.9385 137.29 95.3682C137.778 95.7979 138.022 96.4326 138.022 97.2725C138.022 98.9521 137.002 99.792 134.961 99.792C132.939 99.792 131.929 98.9521 131.929 97.2725ZM159.38 118H153.594V101.315H148.364V96.584H164.595V101.315H159.38V118ZM178.145 118L177.046 115.803H176.929C176.157 116.76 175.371 117.414 174.57 117.766C173.77 118.117 172.734 118.293 171.465 118.293C169.902 118.293 168.672 117.824 167.773 116.887C166.875 115.949 166.426 114.631 166.426 112.932C166.426 111.164 167.041 109.851 168.271 108.991C169.502 108.122 171.284 107.634 173.618 107.526L176.387 107.438V107.204C176.387 105.837 175.713 105.153 174.365 105.153C173.154 105.153 171.616 105.563 169.751 106.384L168.096 102.604C170.029 101.608 172.471 101.11 175.42 101.11C177.549 101.11 179.194 101.638 180.356 102.692C181.528 103.747 182.114 105.222 182.114 107.116V118H178.145ZM173.896 114.25C174.59 114.25 175.181 114.03 175.669 113.591C176.167 113.151 176.416 112.58 176.416 111.877V110.588L175.098 110.646C173.213 110.715 172.271 111.408 172.271 112.727C172.271 113.742 172.812 114.25 173.896 114.25ZM196.03 101.11C196.528 101.11 197.002 101.149 197.451 101.228L197.773 101.286L197.261 106.691C196.792 106.574 196.143 106.516 195.312 106.516C194.062 106.516 193.154 106.804 192.588 107.38C192.021 107.946 191.738 108.767 191.738 109.841V118H186.011V101.403H190.273L191.167 104.055H191.445C191.924 103.176 192.588 102.468 193.438 101.931C194.297 101.384 195.161 101.11 196.03 101.11ZM215.762 101.403V104.172L213.491 105.007C213.804 105.573 213.96 106.232 213.96 106.984C213.96 108.771 213.33 110.158 212.07 111.145C210.82 112.131 208.95 112.624 206.46 112.624C205.845 112.624 205.356 112.585 204.995 112.507C204.858 112.761 204.79 113 204.79 113.225C204.79 113.508 205.02 113.728 205.479 113.884C205.938 114.03 206.538 114.104 207.28 114.104H210.034C213.755 114.104 215.615 115.671 215.615 118.806C215.615 120.827 214.751 122.399 213.022 123.522C211.304 124.646 208.887 125.207 205.771 125.207C203.418 125.207 201.602 124.812 200.322 124.021C199.053 123.239 198.418 122.111 198.418 120.637C198.418 118.654 199.648 117.375 202.109 116.799C201.602 116.584 201.157 116.237 200.776 115.759C200.405 115.28 200.22 114.807 200.22 114.338C200.22 113.82 200.361 113.366 200.645 112.976C200.928 112.575 201.519 112.102 202.417 111.555C201.558 111.174 200.879 110.578 200.381 109.768C199.893 108.957 199.648 107.971 199.648 106.809C199.648 105.002 200.264 103.601 201.494 102.604C202.725 101.608 204.482 101.11 206.768 101.11C207.07 101.11 207.593 101.145 208.335 101.213C209.077 101.281 209.624 101.345 209.976 101.403H215.762ZM203.252 120.065C203.252 120.534 203.506 120.91 204.014 121.193C204.521 121.486 205.2 121.633 206.05 121.633C207.437 121.633 208.545 121.457 209.375 121.105C210.215 120.764 210.635 120.319 210.635 119.772C210.635 119.333 210.381 119.021 209.873 118.835C209.365 118.659 208.638 118.571 207.69 118.571H205.449C204.834 118.571 204.312 118.713 203.882 118.996C203.462 119.289 203.252 119.646 203.252 120.065ZM205.054 106.838C205.054 108.537 205.645 109.387 206.826 109.387C207.373 109.387 207.793 109.177 208.086 108.757C208.389 108.337 208.54 107.707 208.54 106.867C208.54 105.148 207.969 104.289 206.826 104.289C205.645 104.289 205.054 105.139 205.054 106.838ZM226.309 118.293C223.545 118.293 221.396 117.561 219.863 116.096C218.34 114.621 217.578 112.526 217.578 109.812C217.578 107.009 218.286 104.86 219.702 103.366C221.118 101.862 223.14 101.11 225.767 101.11C228.267 101.11 230.195 101.765 231.553 103.073C232.92 104.372 233.604 106.247 233.604 108.698V111.247H223.364C223.403 112.175 223.74 112.902 224.375 113.43C225.02 113.957 225.894 114.221 226.997 114.221C228.003 114.221 228.926 114.128 229.766 113.942C230.615 113.747 231.533 113.42 232.52 112.961V117.077C231.621 117.536 230.693 117.854 229.736 118.029C228.779 118.205 227.637 118.293 226.309 118.293ZM225.972 105.007C225.298 105.007 224.731 105.222 224.272 105.651C223.823 106.071 223.56 106.735 223.481 107.644H228.403C228.384 106.843 228.154 106.203 227.715 105.725C227.285 105.246 226.704 105.007 225.972 105.007ZM244.971 113.767C245.742 113.767 246.665 113.576 247.739 113.195V117.37C246.968 117.702 246.23 117.937 245.527 118.073C244.834 118.22 244.019 118.293 243.081 118.293C241.157 118.293 239.771 117.824 238.921 116.887C238.071 115.939 237.646 114.489 237.646 112.536V105.695H235.64V103.366L238.188 101.564L239.668 98.0781H243.418V101.403H247.49V105.695H243.418V112.155C243.418 113.229 243.936 113.767 244.971 113.767Z" fill="white"/>
<path d="M6.7666 19V6.15039H8.26074V19H6.7666ZM18.166 19V12.7686C18.166 11.9834 17.9873 11.3975 17.6299 11.0107C17.2725 10.624 16.7129 10.4307 15.9512 10.4307C14.9434 10.4307 14.2051 10.7031 13.7363 11.248C13.2676 11.793 13.0332 12.6924 13.0332 13.9463V19H11.5742V9.36719H12.7607L12.998 10.6855H13.0684C13.3672 10.2109 13.7861 9.84473 14.3252 9.58691C14.8643 9.32324 15.4648 9.19141 16.127 9.19141C17.2871 9.19141 18.1602 9.47266 18.7461 10.0352C19.332 10.5918 19.625 11.4854 19.625 12.7158V19H18.166ZM28.8447 16.3721C28.8447 17.2686 28.5107 17.96 27.8428 18.4463C27.1748 18.9326 26.2373 19.1758 25.0303 19.1758C23.7529 19.1758 22.7568 18.9736 22.042 18.5693V17.2158C22.5049 17.4502 23 17.6348 23.5273 17.7695C24.0605 17.9043 24.5732 17.9717 25.0654 17.9717C25.8271 17.9717 26.4131 17.8516 26.8232 17.6113C27.2334 17.3652 27.4385 16.9932 27.4385 16.4951C27.4385 16.1201 27.2744 15.8008 26.9463 15.5371C26.624 15.2676 25.9912 14.9512 25.0479 14.5879C24.1514 14.2539 23.5127 13.9639 23.1318 13.7178C22.7568 13.4658 22.4756 13.1816 22.2881 12.8652C22.1064 12.5488 22.0156 12.1709 22.0156 11.7314C22.0156 10.9463 22.335 10.3281 22.9736 9.87695C23.6123 9.41992 24.4883 9.19141 25.6016 9.19141C26.6387 9.19141 27.6523 9.40234 28.6426 9.82422L28.124 11.0107C27.1572 10.6123 26.2812 10.4131 25.4961 10.4131C24.8047 10.4131 24.2832 10.5215 23.9316 10.7383C23.5801 10.9551 23.4043 11.2539 23.4043 11.6348C23.4043 11.8926 23.4688 12.1123 23.5977 12.2939C23.7324 12.4756 23.9463 12.6484 24.2393 12.8125C24.5322 12.9766 25.0947 13.2139 25.9268 13.5244C27.0693 13.9404 27.8398 14.3594 28.2383 14.7812C28.6426 15.2031 28.8447 15.7334 28.8447 16.3721ZM34.3379 17.9717C34.5957 17.9717 34.8447 17.9541 35.085 17.9189C35.3252 17.8779 35.5156 17.8369 35.6562 17.7959V18.9121C35.498 18.9883 35.2637 19.0498 34.9531 19.0967C34.6484 19.1494 34.373 19.1758 34.127 19.1758C32.2637 19.1758 31.332 18.1943 31.332 16.2314V10.501H29.9521V9.79785L31.332 9.19141L31.9473 7.13477H32.791V9.36719H35.5859V10.501H32.791V16.1699C32.791 16.75 32.9287 17.1953 33.2041 17.5059C33.4795 17.8164 33.8574 17.9717 34.3379 17.9717ZM43.5137 19L43.2236 17.6289H43.1533C42.6729 18.2324 42.1924 18.6426 41.7119 18.8594C41.2373 19.0703 40.6426 19.1758 39.9277 19.1758C38.9727 19.1758 38.2227 18.9297 37.6777 18.4375C37.1387 17.9453 36.8691 17.2451 36.8691 16.3369C36.8691 14.3916 38.4248 13.3721 41.5361 13.2783L43.1709 13.2256V12.6279C43.1709 11.8721 43.0068 11.3154 42.6787 10.958C42.3564 10.5947 41.8379 10.4131 41.123 10.4131C40.3203 10.4131 39.4121 10.6592 38.3984 11.1514L37.9502 10.0352C38.4248 9.77734 38.9434 9.5752 39.5059 9.42871C40.0742 9.28223 40.6426 9.20898 41.2109 9.20898C42.3594 9.20898 43.209 9.46387 43.7598 9.97363C44.3164 10.4834 44.5947 11.3008 44.5947 12.4258V19H43.5137ZM40.2178 17.9717C41.126 17.9717 41.8379 17.7227 42.3535 17.2246C42.875 16.7266 43.1357 16.0293 43.1357 15.1328V14.2627L41.6768 14.3242C40.5166 14.3652 39.6787 14.5469 39.1631 14.8691C38.6533 15.1855 38.3984 15.6807 38.3984 16.3545C38.3984 16.8818 38.5566 17.2832 38.873 17.5586C39.1953 17.834 39.6436 17.9717 40.2178 17.9717ZM55.4932 9.36719V10.29L53.709 10.501C53.873 10.7061 54.0195 10.9756 54.1484 11.3096C54.2773 11.6377 54.3418 12.0098 54.3418 12.4258C54.3418 13.3691 54.0195 14.1221 53.375 14.6846C52.7305 15.2471 51.8457 15.5283 50.7207 15.5283C50.4336 15.5283 50.1641 15.5049 49.9121 15.458C49.291 15.7861 48.9805 16.1992 48.9805 16.6973C48.9805 16.9609 49.0889 17.1572 49.3057 17.2861C49.5225 17.4092 49.8945 17.4707 50.4219 17.4707H52.127C53.1699 17.4707 53.9697 17.6904 54.5264 18.1299C55.0889 18.5693 55.3701 19.208 55.3701 20.0459C55.3701 21.1123 54.9424 21.9238 54.0869 22.4805C53.2314 23.043 51.9834 23.3242 50.3428 23.3242C49.083 23.3242 48.1104 23.0898 47.4248 22.6211C46.7451 22.1523 46.4053 21.4902 46.4053 20.6348C46.4053 20.0488 46.5928 19.542 46.9678 19.1143C47.3428 18.6865 47.8701 18.3965 48.5498 18.2441C48.3037 18.1328 48.0957 17.96 47.9258 17.7256C47.7617 17.4912 47.6797 17.2188 47.6797 16.9082C47.6797 16.5566 47.7734 16.249 47.9609 15.9854C48.1484 15.7217 48.4443 15.4668 48.8486 15.2207C48.3506 15.0156 47.9434 14.667 47.627 14.1748C47.3164 13.6826 47.1611 13.1201 47.1611 12.4873C47.1611 11.4326 47.4775 10.6211 48.1104 10.0527C48.7432 9.47852 49.6396 9.19141 50.7998 9.19141C51.3037 9.19141 51.7578 9.25 52.1621 9.36719H55.4932ZM47.8115 20.6172C47.8115 21.1387 48.0312 21.5342 48.4707 21.8037C48.9102 22.0732 49.54 22.208 50.3604 22.208C51.585 22.208 52.4902 22.0234 53.0762 21.6543C53.668 21.291 53.9639 20.7959 53.9639 20.1689C53.9639 19.6475 53.8027 19.2842 53.4805 19.0791C53.1582 18.8799 52.5518 18.7803 51.6611 18.7803H49.9121C49.25 18.7803 48.7344 18.9385 48.3652 19.2549C47.9961 19.5713 47.8115 20.0254 47.8115 20.6172ZM48.6025 12.4521C48.6025 13.126 48.793 13.6357 49.1738 13.9814C49.5547 14.3271 50.085 14.5 50.7646 14.5C52.1885 14.5 52.9004 13.8086 52.9004 12.4258C52.9004 10.9785 52.1797 10.2549 50.7383 10.2549C50.0527 10.2549 49.5254 10.4395 49.1562 10.8086C48.7871 11.1777 48.6025 11.7256 48.6025 12.4521ZM61.8652 9.19141C62.293 9.19141 62.6768 9.22656 63.0166 9.29688L62.8145 10.6504C62.416 10.5625 62.0645 10.5186 61.7598 10.5186C60.9805 10.5186 60.3125 10.835 59.7559 11.4678C59.2051 12.1006 58.9297 12.8887 58.9297 13.832V19H57.4707V9.36719H58.6748L58.8418 11.1514H58.9121C59.2695 10.5244 59.7002 10.041 60.2041 9.70117C60.708 9.36133 61.2617 9.19141 61.8652 9.19141ZM70.7422 19L70.4521 17.6289H70.3818C69.9014 18.2324 69.4209 18.6426 68.9404 18.8594C68.4658 19.0703 67.8711 19.1758 67.1562 19.1758C66.2012 19.1758 65.4512 18.9297 64.9062 18.4375C64.3672 17.9453 64.0977 17.2451 64.0977 16.3369C64.0977 14.3916 65.6533 13.3721 68.7646 13.2783L70.3994 13.2256V12.6279C70.3994 11.8721 70.2354 11.3154 69.9072 10.958C69.585 10.5947 69.0664 10.4131 68.3516 10.4131C67.5488 10.4131 66.6406 10.6592 65.627 11.1514L65.1787 10.0352C65.6533 9.77734 66.1719 9.5752 66.7344 9.42871C67.3027 9.28223 67.8711 9.20898 68.4395 9.20898C69.5879 9.20898 70.4375 9.46387 70.9883 9.97363C71.5449 10.4834 71.8232 11.3008 71.8232 12.4258V19H70.7422ZM67.4463 17.9717C68.3545 17.9717 69.0664 17.7227 69.582 17.2246C70.1035 16.7266 70.3643 16.0293 70.3643 15.1328V14.2627L68.9053 14.3242C67.7451 14.3652 66.9072 14.5469 66.3916 14.8691C65.8818 15.1855 65.627 15.6807 65.627 16.3545C65.627 16.8818 65.7852 17.2832 66.1016 17.5586C66.4238 17.834 66.8721 17.9717 67.4463 17.9717ZM87.1162 19V12.7334C87.1162 11.9658 86.9521 11.3916 86.624 11.0107C86.2959 10.624 85.7861 10.4307 85.0947 10.4307C84.1865 10.4307 83.5156 10.6914 83.082 11.2129C82.6484 11.7344 82.4316 12.5371 82.4316 13.6211V19H80.9727V12.7334C80.9727 11.9658 80.8086 11.3916 80.4805 11.0107C80.1523 10.624 79.6396 10.4307 78.9424 10.4307C78.0283 10.4307 77.3574 10.7061 76.9297 11.2568C76.5078 11.8018 76.2969 12.6982 76.2969 13.9463V19H74.8379V9.36719H76.0244L76.2617 10.6855H76.332C76.6074 10.2168 76.9941 9.85059 77.4922 9.58691C77.9961 9.32324 78.5586 9.19141 79.1797 9.19141C80.6855 9.19141 81.6699 9.73633 82.1328 10.8262H82.2031C82.4902 10.3223 82.9062 9.92383 83.4512 9.63086C83.9961 9.33789 84.6172 9.19141 85.3145 9.19141C86.4043 9.19141 87.2188 9.47266 87.7578 10.0352C88.3027 10.5918 88.5752 11.4854 88.5752 12.7158V19H87.1162ZM98.3574 8.70801C98.3574 9.1123 98.4629 9.49902 98.6738 9.86816C98.8848 10.2314 99.2451 10.6709 99.7549 11.1865C100.511 10.7471 101.035 10.3428 101.328 9.97363C101.627 9.59863 101.776 9.16797 101.776 8.68164C101.776 8.23047 101.624 7.86426 101.319 7.58301C101.021 7.2959 100.619 7.15234 100.115 7.15234C99.5938 7.15234 99.1689 7.29297 98.8408 7.57422C98.5186 7.85547 98.3574 8.2334 98.3574 8.70801ZM99.7197 17.8662C101.132 17.8662 102.304 17.415 103.235 16.5127L99.3945 12.7861C98.7441 13.1846 98.2842 13.5156 98.0146 13.7793C97.7451 14.0371 97.5459 14.3154 97.417 14.6143C97.2881 14.9131 97.2236 15.2529 97.2236 15.6338C97.2236 16.3193 97.4492 16.8643 97.9004 17.2686C98.3574 17.667 98.9639 17.8662 99.7197 17.8662ZM95.7119 15.6689C95.7119 14.9072 95.9141 14.2334 96.3184 13.6475C96.7285 13.0615 97.4609 12.4697 98.5156 11.8721C98.0176 11.3154 97.6777 10.8936 97.4961 10.6064C97.3203 10.3193 97.1797 10.0205 97.0742 9.70996C96.9688 9.39941 96.916 9.07715 96.916 8.74316C96.916 7.86426 97.2031 7.17871 97.7773 6.68652C98.3516 6.19434 99.1514 5.94824 100.177 5.94824C101.126 5.94824 101.873 6.19434 102.418 6.68652C102.963 7.17285 103.235 7.85254 103.235 8.72559C103.235 9.35254 103.036 9.93262 102.638 10.4658C102.239 10.9932 101.58 11.5293 100.66 12.0742L104.237 15.5107C104.565 15.1475 104.826 14.7227 105.02 14.2363C105.219 13.7441 105.386 13.208 105.521 12.6279H106.997C106.599 14.3037 105.998 15.5752 105.195 16.4424L107.823 19H105.811L104.185 17.4355C103.493 18.0566 102.79 18.502 102.075 18.7715C101.36 19.041 100.563 19.1758 99.6846 19.1758C98.4248 19.1758 97.4463 18.8652 96.749 18.2441C96.0576 17.623 95.7119 16.7646 95.7119 15.6689ZM115.804 19H114.31V6.15039H121.473V7.47754H115.804V12.1797H121.13V13.5068H115.804V19ZM129.312 19L129.022 17.6289H128.952C128.472 18.2324 127.991 18.6426 127.511 18.8594C127.036 19.0703 126.441 19.1758 125.727 19.1758C124.771 19.1758 124.021 18.9297 123.477 18.4375C122.938 17.9453 122.668 17.2451 122.668 16.3369C122.668 14.3916 124.224 13.3721 127.335 13.2783L128.97 13.2256V12.6279C128.97 11.8721 128.806 11.3154 128.478 10.958C128.155 10.5947 127.637 10.4131 126.922 10.4131C126.119 10.4131 125.211 10.6592 124.197 11.1514L123.749 10.0352C124.224 9.77734 124.742 9.5752 125.305 9.42871C125.873 9.28223 126.441 9.20898 127.01 9.20898C128.158 9.20898 129.008 9.46387 129.559 9.97363C130.115 10.4834 130.394 11.3008 130.394 12.4258V19H129.312ZM126.017 17.9717C126.925 17.9717 127.637 17.7227 128.152 17.2246C128.674 16.7266 128.935 16.0293 128.935 15.1328V14.2627L127.476 14.3242C126.315 14.3652 125.478 14.5469 124.962 14.8691C124.452 15.1855 124.197 15.6807 124.197 16.3545C124.197 16.8818 124.355 17.2832 124.672 17.5586C124.994 17.834 125.442 17.9717 126.017 17.9717ZM137.258 19.1758C135.863 19.1758 134.782 18.748 134.015 17.8926C133.253 17.0312 132.872 15.8154 132.872 14.2451C132.872 12.6338 133.259 11.3887 134.032 10.5098C134.812 9.63086 135.919 9.19141 137.354 9.19141C137.817 9.19141 138.28 9.24121 138.743 9.34082C139.206 9.44043 139.569 9.55762 139.833 9.69238L139.385 10.9316C139.062 10.8027 138.711 10.6973 138.33 10.6152C137.949 10.5273 137.612 10.4834 137.319 10.4834C135.362 10.4834 134.384 11.7314 134.384 14.2275C134.384 15.4111 134.621 16.3193 135.096 16.9521C135.576 17.585 136.285 17.9014 137.223 17.9014C138.025 17.9014 138.849 17.7285 139.692 17.3828V18.6748C139.048 19.0088 138.236 19.1758 137.258 19.1758ZM146.056 19.1758C144.632 19.1758 143.507 18.7422 142.681 17.875C141.86 17.0078 141.45 15.8037 141.45 14.2627C141.45 12.71 141.831 11.4766 142.593 10.5625C143.36 9.64844 144.389 9.19141 145.678 9.19141C146.885 9.19141 147.84 9.58984 148.543 10.3867C149.246 11.1777 149.598 12.2236 149.598 13.5244V14.4473H142.962C142.991 15.5781 143.275 16.4365 143.814 17.0225C144.359 17.6084 145.124 17.9014 146.108 17.9014C147.146 17.9014 148.171 17.6846 149.185 17.251V18.5518C148.669 18.7744 148.18 18.9326 147.717 19.0264C147.26 19.126 146.706 19.1758 146.056 19.1758ZM145.66 10.4131C144.887 10.4131 144.269 10.665 143.806 11.1689C143.349 11.6729 143.079 12.3701 142.997 13.2607H148.033C148.033 12.3408 147.828 11.6377 147.418 11.1514C147.008 10.6592 146.422 10.4131 145.66 10.4131ZM156.576 9.20898C157.842 9.20898 158.823 9.64258 159.521 10.5098C160.224 11.3711 160.575 12.5928 160.575 14.1748C160.575 15.7568 160.221 16.9873 159.512 17.8662C158.809 18.7393 157.83 19.1758 156.576 19.1758C155.949 19.1758 155.375 19.0615 154.854 18.833C154.338 18.5986 153.904 18.2412 153.553 17.7607H153.447L153.14 19H152.094V5.32422H153.553V8.64648C153.553 9.39062 153.529 10.0586 153.482 10.6504H153.553C154.232 9.68945 155.24 9.20898 156.576 9.20898ZM156.365 10.4307C155.369 10.4307 154.651 10.7178 154.212 11.292C153.772 11.8604 153.553 12.8213 153.553 14.1748C153.553 15.5283 153.778 16.498 154.229 17.084C154.681 17.6641 155.404 17.9541 156.4 17.9541C157.297 17.9541 157.965 17.6289 158.404 16.9785C158.844 16.3223 159.063 15.3818 159.063 14.1572C159.063 12.9033 158.844 11.9688 158.404 11.3535C157.965 10.7383 157.285 10.4307 156.365 10.4307ZM171.447 14.1748C171.447 15.7451 171.052 16.9727 170.261 17.8574C169.47 18.7363 168.377 19.1758 166.982 19.1758C166.121 19.1758 165.356 18.9736 164.688 18.5693C164.021 18.165 163.505 17.585 163.142 16.8291C162.778 16.0732 162.597 15.1885 162.597 14.1748C162.597 12.6045 162.989 11.3828 163.774 10.5098C164.56 9.63086 165.649 9.19141 167.044 9.19141C168.392 9.19141 169.461 9.63965 170.252 10.5361C171.049 11.4326 171.447 12.6455 171.447 14.1748ZM164.108 14.1748C164.108 15.4053 164.354 16.3428 164.847 16.9873C165.339 17.6318 166.062 17.9541 167.018 17.9541C167.973 17.9541 168.696 17.6348 169.188 16.9961C169.687 16.3516 169.936 15.4111 169.936 14.1748C169.936 12.9502 169.687 12.0215 169.188 11.3887C168.696 10.75 167.967 10.4307 167 10.4307C166.045 10.4307 165.324 10.7441 164.838 11.3711C164.352 11.998 164.108 12.9326 164.108 14.1748ZM182.328 14.1748C182.328 15.7451 181.933 16.9727 181.142 17.8574C180.351 18.7363 179.258 19.1758 177.863 19.1758C177.002 19.1758 176.237 18.9736 175.569 18.5693C174.901 18.165 174.386 17.585 174.022 16.8291C173.659 16.0732 173.478 15.1885 173.478 14.1748C173.478 12.6045 173.87 11.3828 174.655 10.5098C175.44 9.63086 176.53 9.19141 177.925 9.19141C179.272 9.19141 180.342 9.63965 181.133 10.5361C181.93 11.4326 182.328 12.6455 182.328 14.1748ZM174.989 14.1748C174.989 15.4053 175.235 16.3428 175.728 16.9873C176.22 17.6318 176.943 17.9541 177.898 17.9541C178.854 17.9541 179.577 17.6348 180.069 16.9961C180.567 16.3516 180.816 15.4111 180.816 14.1748C180.816 12.9502 180.567 12.0215 180.069 11.3887C179.577 10.75 178.848 10.4307 177.881 10.4307C176.926 10.4307 176.205 10.7441 175.719 11.3711C175.232 11.998 174.989 12.9326 174.989 14.1748ZM186.336 14.0693C186.588 13.7119 186.972 13.2432 187.487 12.6631L190.599 9.36719H192.33L188.428 13.4717L192.603 19H190.836L187.435 14.4473L186.336 15.3965V19H184.895V5.32422H186.336V12.5752C186.336 12.8975 186.312 13.3955 186.266 14.0693H186.336ZM14.8438 44L13.2441 39.9131H8.09375L6.51172 44H5L10.0801 31.0977H11.3369L16.3906 44H14.8438ZM12.7783 38.5684L11.2842 34.5869C11.0908 34.083 10.8916 33.4648 10.6865 32.7324C10.5576 33.2949 10.373 33.9131 10.1328 34.5869L8.62109 38.5684H12.7783ZM24.4941 42.708H24.415C23.7412 43.6865 22.7334 44.1758 21.3916 44.1758C20.1318 44.1758 19.1504 43.7451 18.4473 42.8838C17.75 42.0225 17.4014 40.7979 17.4014 39.21C17.4014 37.6221 17.7529 36.3887 18.4561 35.5098C19.1592 34.6309 20.1377 34.1914 21.3916 34.1914C22.6982 34.1914 23.7002 34.666 24.3975 35.6152H24.5117L24.4502 34.9209L24.415 34.2441V30.3242H25.874V44H24.6875L24.4941 42.708ZM21.5762 42.9541C22.5723 42.9541 23.293 42.6846 23.7383 42.1455C24.1895 41.6006 24.415 40.7246 24.415 39.5176V39.21C24.415 37.8447 24.1865 36.8721 23.7295 36.292C23.2783 35.7061 22.5547 35.4131 21.5586 35.4131C20.7031 35.4131 20.0469 35.7471 19.5898 36.415C19.1387 37.0771 18.9131 38.0146 18.9131 39.2275C18.9131 40.458 19.1387 41.3867 19.5898 42.0137C20.041 42.6406 20.7031 42.9541 21.5762 42.9541ZM31.0859 44L27.4297 34.3672H28.9941L31.0684 40.0801C31.5371 41.416 31.8125 42.2832 31.8945 42.6816H31.9648C32.0293 42.3711 32.2314 41.7295 32.5713 40.7568C32.917 39.7783 33.6875 37.6484 34.8828 34.3672H36.4473L32.791 44H31.0859ZM42.0635 44.1758C40.6396 44.1758 39.5146 43.7422 38.6885 42.875C37.8682 42.0078 37.458 40.8037 37.458 39.2627C37.458 37.71 37.8389 36.4766 38.6006 35.5625C39.3682 34.6484 40.3965 34.1914 41.6855 34.1914C42.8926 34.1914 43.8477 34.5898 44.5508 35.3867C45.2539 36.1777 45.6055 37.2236 45.6055 38.5244V39.4473H38.9697C38.999 40.5781 39.2832 41.4365 39.8223 42.0225C40.3672 42.6084 41.1318 42.9014 42.1162 42.9014C43.1533 42.9014 44.1787 42.6846 45.1924 42.251V43.5518C44.6768 43.7744 44.1875 43.9326 43.7246 44.0264C43.2676 44.126 42.7139 44.1758 42.0635 44.1758ZM41.668 35.4131C40.8945 35.4131 40.2764 35.665 39.8135 36.1689C39.3564 36.6729 39.0869 37.3701 39.0049 38.2607H44.041C44.041 37.3408 43.8359 36.6377 43.4258 36.1514C43.0156 35.6592 42.4297 35.4131 41.668 35.4131ZM52.4961 34.1914C52.9238 34.1914 53.3076 34.2266 53.6475 34.2969L53.4453 35.6504C53.0469 35.5625 52.6953 35.5186 52.3906 35.5186C51.6113 35.5186 50.9434 35.835 50.3867 36.4678C49.8359 37.1006 49.5605 37.8887 49.5605 38.832V44H48.1016V34.3672H49.3057L49.4727 36.1514H49.543C49.9004 35.5244 50.3311 35.041 50.835 34.7012C51.3389 34.3613 51.8926 34.1914 52.4961 34.1914ZM58.5605 42.9717C58.8184 42.9717 59.0674 42.9541 59.3076 42.9189C59.5479 42.8779 59.7383 42.8369 59.8789 42.7959V43.9121C59.7207 43.9883 59.4863 44.0498 59.1758 44.0967C58.8711 44.1494 58.5957 44.1758 58.3496 44.1758C56.4863 44.1758 55.5547 43.1943 55.5547 41.2314V35.501H54.1748V34.7979L55.5547 34.1914L56.1699 32.1348H57.0137V34.3672H59.8086V35.501H57.0137V41.1699C57.0137 41.75 57.1514 42.1953 57.4268 42.5059C57.7021 42.8164 58.0801 42.9717 58.5605 42.9717ZM63.2715 44H61.8125V34.3672H63.2715V44ZM61.6895 31.7568C61.6895 31.4229 61.7715 31.1797 61.9355 31.0273C62.0996 30.8691 62.3047 30.79 62.5508 30.79C62.7852 30.79 62.9873 30.8691 63.1572 31.0273C63.3271 31.1855 63.4121 31.4287 63.4121 31.7568C63.4121 32.085 63.3271 32.3311 63.1572 32.4951C62.9873 32.6533 62.7852 32.7324 62.5508 32.7324C62.3047 32.7324 62.0996 32.6533 61.9355 32.4951C61.7715 32.3311 61.6895 32.085 61.6895 31.7568ZM72.5791 41.3721C72.5791 42.2686 72.2451 42.96 71.5771 43.4463C70.9092 43.9326 69.9717 44.1758 68.7646 44.1758C67.4873 44.1758 66.4912 43.9736 65.7764 43.5693V42.2158C66.2393 42.4502 66.7344 42.6348 67.2617 42.7695C67.7949 42.9043 68.3076 42.9717 68.7998 42.9717C69.5615 42.9717 70.1475 42.8516 70.5576 42.6113C70.9678 42.3652 71.1729 41.9932 71.1729 41.4951C71.1729 41.1201 71.0088 40.8008 70.6807 40.5371C70.3584 40.2676 69.7256 39.9512 68.7822 39.5879C67.8857 39.2539 67.2471 38.9639 66.8662 38.7178C66.4912 38.4658 66.21 38.1816 66.0225 37.8652C65.8408 37.5488 65.75 37.1709 65.75 36.7314C65.75 35.9463 66.0693 35.3281 66.708 34.877C67.3467 34.4199 68.2227 34.1914 69.3359 34.1914C70.373 34.1914 71.3867 34.4023 72.377 34.8242L71.8584 36.0107C70.8916 35.6123 70.0156 35.4131 69.2305 35.4131C68.5391 35.4131 68.0176 35.5215 67.666 35.7383C67.3145 35.9551 67.1387 36.2539 67.1387 36.6348C67.1387 36.8926 67.2031 37.1123 67.332 37.2939C67.4668 37.4756 67.6807 37.6484 67.9736 37.8125C68.2666 37.9766 68.8291 38.2139 69.6611 38.5244C70.8037 38.9404 71.5742 39.3594 71.9727 39.7812C72.377 40.2031 72.5791 40.7334 72.5791 41.3721ZM76.4199 44H74.9609V34.3672H76.4199V44ZM74.8379 31.7568C74.8379 31.4229 74.9199 31.1797 75.084 31.0273C75.248 30.8691 75.4531 30.79 75.6992 30.79C75.9336 30.79 76.1357 30.8691 76.3057 31.0273C76.4756 31.1855 76.5605 31.4287 76.5605 31.7568C76.5605 32.085 76.4756 32.3311 76.3057 32.4951C76.1357 32.6533 75.9336 32.7324 75.6992 32.7324C75.4531 32.7324 75.248 32.6533 75.084 32.4951C74.9199 32.3311 74.8379 32.085 74.8379 31.7568ZM86.1055 44V37.7686C86.1055 36.9834 85.9268 36.3975 85.5693 36.0107C85.2119 35.624 84.6523 35.4307 83.8906 35.4307C82.8828 35.4307 82.1445 35.7031 81.6758 36.248C81.207 36.793 80.9727 37.6924 80.9727 38.9463V44H79.5137V34.3672H80.7002L80.9375 35.6855H81.0078C81.3066 35.2109 81.7256 34.8447 82.2646 34.5869C82.8037 34.3232 83.4043 34.1914 84.0664 34.1914C85.2266 34.1914 86.0996 34.4727 86.6855 35.0352C87.2715 35.5918 87.5645 36.4854 87.5645 37.7158V44H86.1055ZM98.4541 34.3672V35.29L96.6699 35.501C96.834 35.7061 96.9805 35.9756 97.1094 36.3096C97.2383 36.6377 97.3027 37.0098 97.3027 37.4258C97.3027 38.3691 96.9805 39.1221 96.3359 39.6846C95.6914 40.2471 94.8066 40.5283 93.6816 40.5283C93.3945 40.5283 93.125 40.5049 92.873 40.458C92.252 40.7861 91.9414 41.1992 91.9414 41.6973C91.9414 41.9609 92.0498 42.1572 92.2666 42.2861C92.4834 42.4092 92.8555 42.4707 93.3828 42.4707H95.0879C96.1309 42.4707 96.9307 42.6904 97.4873 43.1299C98.0498 43.5693 98.3311 44.208 98.3311 45.0459C98.3311 46.1123 97.9033 46.9238 97.0479 47.4805C96.1924 48.043 94.9443 48.3242 93.3037 48.3242C92.0439 48.3242 91.0713 48.0898 90.3857 47.6211C89.7061 47.1523 89.3662 46.4902 89.3662 45.6348C89.3662 45.0488 89.5537 44.542 89.9287 44.1143C90.3037 43.6865 90.8311 43.3965 91.5107 43.2441C91.2646 43.1328 91.0566 42.96 90.8867 42.7256C90.7227 42.4912 90.6406 42.2188 90.6406 41.9082C90.6406 41.5566 90.7344 41.249 90.9219 40.9854C91.1094 40.7217 91.4053 40.4668 91.8096 40.2207C91.3115 40.0156 90.9043 39.667 90.5879 39.1748C90.2773 38.6826 90.1221 38.1201 90.1221 37.4873C90.1221 36.4326 90.4385 35.6211 91.0713 35.0527C91.7041 34.4785 92.6006 34.1914 93.7607 34.1914C94.2646 34.1914 94.7188 34.25 95.123 34.3672H98.4541ZM90.7725 45.6172C90.7725 46.1387 90.9922 46.5342 91.4316 46.8037C91.8711 47.0732 92.501 47.208 93.3213 47.208C94.5459 47.208 95.4512 47.0234 96.0371 46.6543C96.6289 46.291 96.9248 45.7959 96.9248 45.1689C96.9248 44.6475 96.7637 44.2842 96.4414 44.0791C96.1191 43.8799 95.5127 43.7803 94.6221 43.7803H92.873C92.2109 43.7803 91.6953 43.9385 91.3262 44.2549C90.957 44.5713 90.7725 45.0254 90.7725 45.6172ZM91.5635 37.4521C91.5635 38.126 91.7539 38.6357 92.1348 38.9814C92.5156 39.3271 93.0459 39.5 93.7256 39.5C95.1494 39.5 95.8613 38.8086 95.8613 37.4258C95.8613 35.9785 95.1406 35.2549 93.6992 35.2549C93.0137 35.2549 92.4863 35.4395 92.1172 35.8086C91.748 36.1777 91.5635 36.7256 91.5635 37.4521Z" fill="white"/>
<path fill-rule="evenodd" clip-rule="evenodd" d="M262.764 85.3179C266.382 82.6589 267.158 77.5697 264.499 73.9521C260.372 68.3362 261.116 63.4669 266.734 59.339C272.348 55.2134 277.221 55.9553 281.348 61.5707C284.006 65.1883 289.095 65.9682 292.713 63.3092C296.331 60.6503 297.107 55.5611 294.448 51.9435C291.789 48.3253 286.701 47.5453 283.082 50.2043C277.465 54.3322 271.425 53.5647 267.297 47.9475C264.638 44.3292 261.449 44.7093 257.83 47.3687C254.213 50.0272 252.703 53.9829 255.362 57.6011C259.49 63.2184 258.746 68.0883 253.133 72.2134C249.511 74.8752 248.735 79.9643 251.394 83.5826C254.053 87.2002 259.142 87.9797 262.764 85.3179Z" fill="url(#paint0_linear)"/>
<path fill-rule="evenodd" clip-rule="evenodd" d="M261.32 21.4658C257.656 24.0613 256.792 29.1362 259.387 32.7996C263.416 38.4866 262.587 43.3422 256.898 47.3717C251.213 51.3988 246.353 50.5721 242.325 44.8857C239.73 41.2223 234.656 40.3539 230.992 42.9494C227.328 45.5449 226.67 50.3544 229.265 54.0178C231.86 57.6818 236.729 58.8157 240.393 56.2202C246.081 52.1907 251.768 52.4313 255.798 58.1196C258.393 61.7836 262.181 62.5981 265.845 60.0021C269.509 57.4071 270.834 52.9714 268.238 49.3074C264.209 43.619 265.037 38.7628 270.721 34.7361C274.389 32.1378 275.253 27.0629 272.658 23.3989C270.063 19.7355 264.988 18.8675 261.32 21.4658Z" fill="url(#paint1_linear)"/>
<path fill-rule="evenodd" clip-rule="evenodd" d="M261.32 21.4658C257.656 24.0613 256.792 29.1362 259.387 32.7996C263.416 38.4866 262.587 43.3422 256.898 47.3717C251.213 51.3988 246.353 50.5721 242.325 44.8857C239.73 41.2223 234.656 40.3539 230.992 42.9494C227.328 45.5449 226.67 50.3544 229.265 54.0178C231.86 57.6818 236.729 58.8157 240.393 56.2202C246.081 52.1907 251.768 52.4313 255.798 58.1196C258.393 61.7836 262.181 62.5981 265.845 60.0021C269.509 57.4071 270.834 52.9714 268.238 49.3074C264.209 43.619 265.037 38.7628 270.721 34.7361C274.389 32.1378 275.253 27.0629 272.658 23.3989C270.063 19.7355 264.988 18.8675 261.32 21.4658Z" fill="white" fill-opacity="0.2"/>
<path fill-rule="evenodd" clip-rule="evenodd" d="M241.874 44.2467C239.152 40.6756 234.05 39.9893 230.48 42.7107C224.937 46.9353 220.056 46.2765 215.83 40.7324C211.607 35.1915 212.263 30.3058 217.806 26.0816C221.376 23.3602 222.067 18.2589 219.345 14.6878C216.623 11.1166 211.521 10.4304 207.951 13.1517C204.38 15.8736 203.689 20.9749 206.411 24.5461C210.636 30.0901 209.977 34.9728 204.433 39.1984C200.862 41.9202 200.174 47.0196 202.896 50.5914C205.618 54.1619 210.72 54.8545 214.292 52.1326C219.836 47.907 224.718 48.5653 228.94 54.1056C231.665 57.6805 236.767 58.3668 240.338 55.6449C243.909 52.9236 244.599 47.8216 241.874 44.2467Z" fill="white"/>
<path fill-rule="evenodd" clip-rule="evenodd" d="M241.874 44.2467C239.152 40.6756 234.05 39.9893 230.48 42.7107C224.937 46.9353 220.056 46.2765 215.83 40.7324C211.607 35.1915 212.263 30.3058 217.806 26.0816C221.376 23.3602 222.067 18.2589 219.345 14.6878C216.623 11.1166 211.521 10.4304 207.951 13.1517C204.38 15.8736 203.689 20.9749 206.411 24.5461C210.636 30.0901 209.977 34.9728 204.433 39.1984C200.862 41.9202 200.174 47.0196 202.896 50.5914C205.618 54.1619 210.72 54.8545 214.292 52.1326C219.836 47.907 224.718 48.5653 228.94 54.1056C231.665 57.6805 236.767 58.3668 240.338 55.6449C243.909 52.9236 244.599 47.8216 241.874 44.2467Z" fill="url(#paint2_linear)" fill-opacity="0.2"/>
<path fill-rule="evenodd" clip-rule="evenodd" d="M264.707 74.0315C262.1 70.3514 256.883 69.5678 253.217 72.1642C247.527 76.1949 242.661 75.3546 238.614 69.6414C234.569 63.9314 234.921 60.1433 240.611 56.1131C244.548 53.6829 245.604 47.3429 242.997 43.6628C240.39 39.9827 235.305 39.1068 231.639 41.7033C227.973 44.3002 226.193 49.6822 228.8 53.3623C230.52 57.1031 232.945 63.652 227.254 67.6837C223.588 70.2806 222.729 75.367 225.337 79.0478C227.943 82.7272 233.029 83.6095 236.695 81.0126C242.387 76.981 247.253 77.8208 251.298 83.5301C253.907 87.2142 258.993 88.0901 262.659 85.4932C266.324 82.8967 267.316 77.7155 264.707 74.0315Z" fill="white"/>
<path fill-rule="evenodd" clip-rule="evenodd" d="M264.707 74.0315C262.1 70.3514 256.883 69.5678 253.217 72.1642C247.527 76.1949 242.661 75.3546 238.614 69.6414C234.569 63.9314 234.921 60.1433 240.611 56.1131C244.548 53.6829 245.604 47.3429 242.997 43.6628C240.39 39.9827 235.305 39.1068 231.639 41.7033C227.973 44.3002 226.193 49.6822 228.8 53.3623C230.52 57.1031 232.945 63.652 227.254 67.6837C223.588 70.2806 222.729 75.367 225.337 79.0478C227.943 82.7272 233.029 83.6095 236.695 81.0126C242.387 76.981 247.253 77.8208 251.298 83.5301C253.907 87.2142 258.993 88.0901 262.659 85.4932C266.324 82.8967 267.316 77.7155 264.707 74.0315Z" fill="#BCA9F1" fill-opacity="0.07"/>
</g>
<defs>
<linearGradient id="paint0_linear" x1="277.736" y1="74.3152" x2="310.203" y2="51.814" gradientUnits="userSpaceOnUse">
<stop stop-color="white"/>
<stop offset="1" stop-color="white" stop-opacity="0"/>
</linearGradient>
<linearGradient id="paint1_linear" x1="246.158" y1="32.206" x2="266.301" y2="60.6411" gradientUnits="userSpaceOnUse">
<stop stop-color="white"/>
<stop offset="1" stop-color="#BCA9F1"/>
</linearGradient>
<linearGradient id="paint2_linear" x1="230.611" y1="29.4694" x2="202.897" y2="50.5926" gradientUnits="userSpaceOnUse">
<stop stop-color="white"/>
<stop offset="1" stop-color="#BCA9F1"/>
</linearGradient>
<clipPath id="clip0">
<rect width="300" height="127" fill="white"/>
</clipPath>
</defs>
</svg>
