<svg width="830" height="1287" viewBox="0 0 830 1287" fill="none" xmlns="http://www.w3.org/2000/svg">
<g opacity="0.2" clip-path="url(#clip0_448_12)">
<rect width="830" height="1287" fill="white"/>
<rect x="428" y="844" width="512" height="512" rx="256" fill="#7862B7" fill-opacity="0.2"/>
<path fill-rule="evenodd" clip-rule="evenodd" d="M505.065 1089.3C508.486 1108.09 526.498 1120.54 545.284 1117.12C574.447 1111.81 591.676 1123.73 596.988 1152.9C602.296 1182.06 590.376 1199.3 561.216 1204.61C542.43 1208.04 529.963 1226.04 533.385 1244.83C536.806 1263.61 554.818 1276.07 573.604 1272.64C592.393 1269.22 604.859 1251.22 601.438 1232.43C596.126 1203.26 610.318 1181.6 639.488 1176.29C658.278 1172.87 662.769 1159.97 659.347 1141.17C655.927 1122.39 643.617 1109.24 624.828 1112.67C595.658 1117.98 578.426 1106.06 573.118 1076.91C569.693 1058.1 551.681 1045.65 532.892 1049.07C514.106 1052.49 501.64 1070.49 505.065 1089.3Z" fill="url(#paint0_linear_448_12)"/>
<path fill-rule="evenodd" clip-rule="evenodd" d="M751.874 1202.8C748.78 1183.95 730.989 1171.19 712.146 1174.28C682.894 1179.08 665.876 1166.87 661.073 1137.61C656.273 1108.37 668.492 1091.33 697.74 1086.53C716.583 1083.43 729.361 1065.65 726.268 1046.81C723.174 1027.96 706.014 1016.48 687.171 1019.57C668.325 1022.66 654.915 1039.16 658.009 1058.01C662.812 1087.27 651.291 1108.56 622.033 1113.37C603.187 1116.46 593.013 1129.42 596.108 1148.27C599.201 1167.11 613.69 1180.45 632.536 1177.35C661.794 1172.55 678.816 1184.77 683.616 1214.01C686.712 1232.87 704.504 1245.64 723.35 1242.54C742.193 1239.45 754.971 1221.66 751.874 1202.8Z" fill="url(#paint1_linear_448_12)"/>
<path fill-rule="evenodd" clip-rule="evenodd" d="M751.874 1202.8C748.78 1183.95 730.989 1171.19 712.146 1174.28C682.894 1179.08 665.876 1166.87 661.073 1137.61C656.273 1108.37 668.492 1091.33 697.74 1086.53C716.583 1083.43 729.361 1065.65 726.268 1046.81C723.174 1027.96 706.014 1016.48 687.171 1019.57C668.325 1022.66 654.915 1039.16 658.009 1058.01C662.812 1087.27 651.291 1108.56 622.033 1113.37C603.187 1116.46 593.013 1129.42 596.108 1148.27C599.201 1167.11 613.69 1180.45 632.536 1177.35C661.794 1172.55 678.816 1184.77 683.616 1214.01C686.712 1232.87 704.504 1245.64 723.35 1242.54C742.193 1239.45 754.971 1221.66 751.874 1202.8Z" fill="white" fill-opacity="0.2"/>
<path fill-rule="evenodd" clip-rule="evenodd" d="M701.024 1085.99C719.751 1082.24 731.884 1064.02 728.135 1045.29C722.315 1016.23 733.933 998.792 763.005 992.971C792.06 987.153 809.516 998.77 815.335 1027.83C819.084 1046.55 837.3 1058.7 856.027 1054.95C874.753 1051.2 886.886 1032.98 883.137 1014.26C879.387 995.529 861.172 983.38 842.445 987.129C813.373 992.951 795.934 981.331 790.113 952.258C786.363 933.532 768.15 921.396 749.42 925.146C730.697 928.896 718.538 947.113 722.288 965.84C728.109 994.912 716.492 1012.35 687.44 1018.17C668.694 1021.92 656.56 1040.15 660.31 1058.87C664.059 1077.6 682.278 1089.75 701.024 1085.99Z" fill="white"/>
<path fill-rule="evenodd" clip-rule="evenodd" d="M701.024 1085.99C719.751 1082.24 731.884 1064.02 728.135 1045.29C722.315 1016.23 733.933 998.792 763.005 992.971C792.06 987.153 809.516 998.77 815.335 1027.83C819.084 1046.55 837.3 1058.7 856.027 1054.95C874.753 1051.2 886.886 1032.98 883.137 1014.26C879.387 995.529 861.172 983.38 842.445 987.129C813.373 992.951 795.934 981.331 790.113 952.258C786.363 933.532 768.15 921.396 749.42 925.146C730.697 928.896 718.538 947.113 722.288 965.84C728.109 994.912 716.492 1012.35 687.44 1018.17C668.694 1021.92 656.56 1040.15 660.31 1058.87C664.059 1077.6 682.278 1089.75 701.024 1085.99Z" fill="url(#paint2_linear_448_12)" fill-opacity="0.2"/>
<path fill-rule="evenodd" clip-rule="evenodd" d="M544.593 1117.77C563.522 1114.66 576.243 1096.17 573.148 1077.32C568.344 1048.05 580.626 1031.02 610.012 1026.19C639.382 1021.37 653.209 1029.78 658.012 1059.04C659.965 1078.62 682.234 1094.48 701.163 1091.37C720.091 1088.27 732.92 1070.46 729.825 1051.6C726.73 1032.75 709.471 1015.91 690.542 1019.02C673.035 1018.62 643.478 1015.68 638.673 986.409C635.577 967.553 617.731 954.791 598.799 957.899C579.873 961.006 567.019 978.807 570.114 997.663C574.92 1026.94 562.638 1043.98 533.272 1048.8C514.323 1051.91 501.495 1069.72 504.59 1088.58C507.685 1107.43 525.644 1120.88 544.593 1117.77Z" fill="white"/>
<path fill-rule="evenodd" clip-rule="evenodd" d="M544.593 1117.77C563.522 1114.66 576.243 1096.17 573.148 1077.32C568.344 1048.05 580.626 1031.02 610.012 1026.19C639.382 1021.37 653.209 1029.78 658.012 1059.04C659.965 1078.62 682.234 1094.48 701.163 1091.37C720.091 1088.27 732.92 1070.46 729.825 1051.6C726.73 1032.75 709.471 1015.91 690.542 1019.02C673.035 1018.62 643.478 1015.68 638.673 986.409C635.577 967.553 617.731 954.791 598.799 957.899C579.873 961.006 567.019 978.807 570.114 997.663C574.92 1026.94 562.638 1043.98 533.272 1048.8C514.323 1051.91 501.495 1069.72 504.59 1088.58C507.685 1107.43 525.644 1120.88 544.593 1117.77Z" fill="#BCA9F1" fill-opacity="0.07"/>
<rect width="175.345" height="1429" transform="translate(591.36 -221) rotate(33.3867)" fill="#7862B7" fill-opacity="0.2"/>
<rect width="175.345" height="1745.33" transform="translate(830.36 -56) rotate(33.3867)" fill="#7862B7" fill-opacity="0.2"/>
<path d="M195.979 1022.8L195.867 1077.4L222.022 1089.22L222 1100L124.092 1055L124.113 1044.78L222.205 1000.18L222.183 1011.1L195.979 1022.8ZM187.571 1026.57L134.883 1049.98L187.474 1073.61L187.571 1026.57ZM124.407 901.865L222.407 902.067L222.389 910.607L142.74 973.443L222.26 973.606L222.239 983.966L124.239 983.765L124.256 975.225L203.906 912.249L124.386 912.085L124.407 901.865ZM196.419 808.566L196.307 863.166L222.462 874.98L222.44 885.76L124.532 840.759L124.553 830.539L222.645 785.94L222.623 796.86L196.419 808.566ZM188.011 812.329L135.323 835.741L187.914 859.369L188.011 812.329ZM223.574 742.71C223.559 749.99 222.378 756.988 220.031 763.703C217.684 770.325 214.593 775.452 210.759 779.084L202.788 775.008C206.342 771.468 209.245 766.761 211.497 760.886C213.655 755.01 214.741 748.946 214.754 742.692C214.772 733.919 213.199 727.336 210.035 722.942C206.777 718.549 202.581 716.347 197.448 716.337C193.528 716.329 190.399 717.535 188.061 719.957C185.722 722.286 183.943 725.176 182.723 728.626C181.409 732.077 179.999 736.881 178.493 743.038C176.611 750.407 174.826 756.284 173.137 760.667C171.355 765.05 168.687 768.824 165.134 771.99C161.581 775.063 156.771 776.593 150.704 776.581C145.758 776.571 141.28 775.255 137.272 772.633C133.171 770.011 129.913 765.991 127.497 760.573C125.082 755.155 123.882 748.432 123.898 740.406C123.91 734.806 124.715 729.347 126.312 724.031C127.817 718.62 129.926 713.958 132.641 710.044L140.894 713.56C138.179 717.662 136.163 722.044 134.847 726.708C133.437 731.372 132.728 735.944 132.718 740.424C132.701 749.01 134.367 755.5 137.718 759.894C140.976 764.194 145.219 766.349 150.445 766.36C154.365 766.368 157.541 765.208 159.972 762.88C162.311 760.458 164.137 757.475 165.451 753.931C166.672 750.293 168.035 745.443 169.541 739.379C171.329 732.196 173.114 726.413 174.896 722.03C176.586 717.554 179.207 713.779 182.76 710.706C186.219 707.634 190.936 706.103 196.909 706.115C201.856 706.126 206.38 707.488 210.481 710.203C214.489 712.825 217.7 716.892 220.116 722.403C222.438 727.915 223.59 734.684 223.574 742.71ZM133.852 665.74L133.781 700.18L124.821 700.162L124.984 620.922L133.944 620.94L133.873 655.38L222.913 655.563L222.892 665.923L133.852 665.74ZM196.954 547.981L196.842 602.581L222.997 614.394L222.975 625.174L125.067 580.173L125.088 569.953L223.18 525.355L223.158 536.275L196.954 547.981ZM188.546 551.744L135.858 575.155L188.449 598.783L188.546 551.744ZM224.109 482.125C224.094 489.405 222.913 496.402 220.566 503.118C218.219 509.74 215.128 514.867 211.294 518.499L203.323 514.422C206.877 510.883 209.78 506.176 212.032 500.3C214.19 494.425 215.276 488.36 215.289 482.107C215.307 473.333 213.734 466.75 210.57 462.357C207.312 457.964 203.116 455.762 197.983 455.751C194.063 455.743 190.934 456.95 188.596 459.372C186.258 461.7 184.478 464.59 183.258 468.041C181.944 471.492 180.534 476.295 179.028 482.452C177.146 489.822 175.361 495.698 173.672 500.081C171.89 504.464 169.222 508.239 165.669 511.405C162.116 514.478 157.306 516.008 151.239 515.995C146.293 515.985 141.815 514.669 137.807 512.048C133.706 509.426 130.448 505.406 128.032 499.988C125.617 494.569 124.417 487.847 124.434 479.82C124.445 474.22 125.25 468.762 126.847 463.445C128.352 458.035 130.461 453.373 133.176 449.458L141.429 452.975C138.714 457.076 136.698 461.459 135.382 466.123C133.972 470.786 133.263 475.358 133.254 479.838C133.236 488.425 134.903 494.915 138.254 499.309C141.511 503.609 145.754 505.764 150.98 505.775C154.9 505.783 158.076 504.623 160.507 502.294C162.846 499.872 164.672 496.89 165.986 493.346C167.207 489.708 168.57 484.858 170.076 478.794C171.864 471.611 173.649 465.828 175.431 461.445C177.121 456.968 179.742 453.194 183.295 450.121C186.754 447.048 191.471 445.518 197.444 445.53C202.391 445.54 206.915 446.903 211.016 449.618C215.024 452.24 218.235 456.306 220.651 461.818C222.973 467.329 224.126 474.098 224.109 482.125ZM125.391 422.809L125.412 412.449L223.412 412.651L223.39 423.01L125.391 422.809Z" fill="#2F073D" fill-opacity="0.2"/>
<path d="M277.032 934.095L276.961 968.535L268.001 968.517L268.164 889.277L277.124 889.295L277.053 923.735L366.093 923.918L366.072 934.278L277.032 934.095ZM340.134 816.336L340.022 870.936L366.177 882.749L366.155 893.529L268.247 848.528L268.268 838.308L366.36 793.71L366.338 804.63L340.134 816.336ZM331.726 820.099L279.038 843.51L331.629 867.138L331.726 820.099ZM366.531 710.578L334.985 732.914C335.26 735.434 335.394 738.048 335.389 740.754L335.335 767.074L366.415 767.138L366.394 777.498L268.394 777.297L268.469 740.617C268.495 728.11 271.501 718.316 277.489 711.235C283.477 704.154 291.698 700.625 302.151 700.646C309.805 700.662 316.287 702.635 321.599 706.566C326.818 710.403 330.587 715.918 332.905 723.109L366.554 699.238L366.531 710.578ZM326.568 741.016C326.588 731.31 324.457 723.885 320.174 718.743C315.891 713.601 309.877 711.022 302.13 711.006C294.197 710.99 288.125 713.544 283.914 718.669C279.61 723.793 277.448 731.209 277.428 740.915L277.375 766.955L326.515 767.056L326.568 741.016ZM317.743 607.206L317.763 597.266L355.143 597.343C359.147 601.924 362.216 607.344 364.35 613.602C366.484 619.859 367.544 626.442 367.53 633.348C367.509 643.148 365.345 651.964 361.035 659.795C356.726 667.626 350.786 673.774 343.217 678.238C335.555 682.703 327.01 684.925 317.584 684.906C308.157 684.886 299.668 682.629 292.117 678.134C284.473 673.638 278.513 667.466 274.235 659.617C269.958 651.768 267.83 642.897 267.85 633.004C267.865 625.537 269.093 618.679 271.532 612.431C273.878 606.183 277.389 600.916 282.065 596.633L288.631 603.086C280.962 610.817 277.115 620.656 277.091 632.603C277.075 640.536 278.833 647.726 282.367 654.173C285.807 660.527 290.65 665.53 296.896 669.183C303.048 672.836 309.951 674.67 317.605 674.686C325.258 674.702 332.168 672.896 338.336 669.268C344.503 665.641 349.367 660.658 352.926 654.318C356.486 647.979 358.274 640.843 358.29 632.909C358.311 622.829 355.809 614.284 350.783 607.274L317.743 607.206ZM358.006 498.727L366.966 498.746L366.824 568.045L268.824 567.844L268.962 500.644L277.922 500.663L277.805 557.503L312.665 557.574L312.769 506.894L321.589 506.912L321.485 557.592L357.885 557.667L358.006 498.727ZM278.015 455.17L277.944 489.61L268.984 489.592L269.147 410.352L278.107 410.371L278.036 444.811L367.076 444.993L367.055 455.353L278.015 455.17Z" fill="#2F073D" fill-opacity="0.2"/>
</g>
<defs>
<linearGradient id="paint0_linear_448_12" x1="519.223" y1="1167.05" x2="544.732" y2="1333.12" gradientUnits="userSpaceOnUse">
<stop stop-color="white"/>
<stop offset="1" stop-color="white" stop-opacity="0"/>
</linearGradient>
<linearGradient id="paint1_linear_448_12" x1="739.073" y1="1124.81" x2="592.815" y2="1148.82" gradientUnits="userSpaceOnUse">
<stop stop-color="white"/>
<stop offset="1" stop-color="#BCA9F1"/>
</linearGradient>
<linearGradient id="paint2_linear_448_12" x1="778.514" y1="1070.48" x2="749.414" y2="925.148" gradientUnits="userSpaceOnUse">
<stop stop-color="white"/>
<stop offset="1" stop-color="#BCA9F1"/>
</linearGradient>
<clipPath id="clip0_448_12">
<rect width="830" height="1287" fill="white"/>
</clipPath>
</defs>
</svg>
